<mxfile host="app.diagrams.net" agent="Mozilla/5.0 (Windows NT 10.0; Win64; x64) AppleWebKit/537.36 (KHTML, like Gecko) Chrome/140.0.0.0 Safari/537.36 Edg/140.0.0.0" version="28.2.0">
  <diagram name="ページ1" id="bDk3IauId_fMpXvWo6E_">
    <mxGraphModel dx="1048" dy="1623" grid="1" gridSize="10" guides="1" tooltips="1" connect="1" arrows="1" fold="1" page="0" pageScale="1" pageWidth="827" pageHeight="1169" math="0" shadow="0">
      <root>
        <mxCell id="0" />
        <mxCell id="1" parent="0" />
        <mxCell id="sulzpsI2D9N6oiVS1tv0-2" value="乗り物" style="rounded=0;whiteSpace=wrap;html=1;" vertex="1" parent="1">
          <mxGeometry x="130" y="70" width="120" height="60" as="geometry" />
        </mxCell>
        <mxCell id="sulzpsI2D9N6oiVS1tv0-3" value="船" style="rounded=0;whiteSpace=wrap;html=1;" vertex="1" parent="1">
          <mxGeometry x="120" y="200" width="120" height="60" as="geometry" />
        </mxCell>
        <mxCell id="sulzpsI2D9N6oiVS1tv0-4" value="飛行機" style="rounded=0;whiteSpace=wrap;html=1;" vertex="1" parent="1">
          <mxGeometry x="280" y="200" width="120" height="60" as="geometry" />
        </mxCell>
        <mxCell id="sulzpsI2D9N6oiVS1tv0-5" value="車" style="rounded=0;whiteSpace=wrap;html=1;" vertex="1" parent="1">
          <mxGeometry x="-40" y="200" width="120" height="60" as="geometry" />
        </mxCell>
        <mxCell id="sulzpsI2D9N6oiVS1tv0-6" value="" style="endArrow=diamondThin;endFill=0;endSize=24;html=1;rounded=0;exitX=0.5;exitY=0;exitDx=0;exitDy=0;entryX=0.5;entryY=1;entryDx=0;entryDy=0;" edge="1" parent="1" source="sulzpsI2D9N6oiVS1tv0-5" target="sulzpsI2D9N6oiVS1tv0-2">
          <mxGeometry width="160" relative="1" as="geometry">
            <mxPoint x="60" y="90" as="sourcePoint" />
            <mxPoint x="220" y="90" as="targetPoint" />
          </mxGeometry>
        </mxCell>
        <mxCell id="sulzpsI2D9N6oiVS1tv0-7" value="" style="endArrow=diamondThin;endFill=0;endSize=24;html=1;rounded=0;exitX=0.5;exitY=0;exitDx=0;exitDy=0;entryX=0.5;entryY=1;entryDx=0;entryDy=0;" edge="1" parent="1" source="sulzpsI2D9N6oiVS1tv0-3" target="sulzpsI2D9N6oiVS1tv0-2">
          <mxGeometry width="160" relative="1" as="geometry">
            <mxPoint x="30" y="-30" as="sourcePoint" />
            <mxPoint x="190" y="-30" as="targetPoint" />
          </mxGeometry>
        </mxCell>
        <mxCell id="sulzpsI2D9N6oiVS1tv0-8" value="" style="endArrow=diamondThin;endFill=0;endSize=24;html=1;rounded=0;exitX=0.5;exitY=0;exitDx=0;exitDy=0;entryX=0.5;entryY=1;entryDx=0;entryDy=0;" edge="1" parent="1" source="sulzpsI2D9N6oiVS1tv0-4" target="sulzpsI2D9N6oiVS1tv0-2">
          <mxGeometry width="160" relative="1" as="geometry">
            <mxPoint x="60" y="90" as="sourcePoint" />
            <mxPoint x="220" y="90" as="targetPoint" />
          </mxGeometry>
        </mxCell>
        <mxCell id="sulzpsI2D9N6oiVS1tv0-9" value="車" style="rounded=0;whiteSpace=wrap;html=1;" vertex="1" parent="1">
          <mxGeometry x="720" y="-120" width="120" height="60" as="geometry" />
        </mxCell>
        <mxCell id="sulzpsI2D9N6oiVS1tv0-10" value="" style="rounded=0;whiteSpace=wrap;html=1;" vertex="1" parent="1">
          <mxGeometry x="700" y="120" width="120" height="60" as="geometry" />
        </mxCell>
        <mxCell id="sulzpsI2D9N6oiVS1tv0-11" value="利用者" style="rounded=0;whiteSpace=wrap;html=1;" vertex="1" parent="1">
          <mxGeometry x="360" y="360" width="120" height="60" as="geometry" />
        </mxCell>
        <mxCell id="sulzpsI2D9N6oiVS1tv0-12" value="図書カード" style="rounded=0;whiteSpace=wrap;html=1;" vertex="1" parent="1">
          <mxGeometry x="360" y="480" width="120" height="60" as="geometry" />
        </mxCell>
        <mxCell id="sulzpsI2D9N6oiVS1tv0-13" value="ID" style="rounded=0;whiteSpace=wrap;html=1;" vertex="1" parent="1">
          <mxGeometry x="360" y="600" width="120" height="60" as="geometry" />
        </mxCell>
        <mxCell id="sulzpsI2D9N6oiVS1tv0-14" value="" style="rounded=0;whiteSpace=wrap;html=1;" vertex="1" parent="1">
          <mxGeometry x="890" y="100" width="120" height="60" as="geometry" />
        </mxCell>
        <mxCell id="sulzpsI2D9N6oiVS1tv0-15" value="" style="rounded=0;whiteSpace=wrap;html=1;" vertex="1" parent="1">
          <mxGeometry x="910" y="-20" width="120" height="60" as="geometry" />
        </mxCell>
        <mxCell id="sulzpsI2D9N6oiVS1tv0-16" value="" style="rounded=0;whiteSpace=wrap;html=1;" vertex="1" parent="1">
          <mxGeometry x="720" y="-10" width="120" height="60" as="geometry" />
        </mxCell>
        <mxCell id="sulzpsI2D9N6oiVS1tv0-17" value="" style="rounded=0;whiteSpace=wrap;html=1;" vertex="1" parent="1">
          <mxGeometry x="540" y="-10" width="120" height="60" as="geometry" />
        </mxCell>
        <mxCell id="sulzpsI2D9N6oiVS1tv0-18" value="" style="endArrow=diamondThin;endFill=0;endSize=24;html=1;rounded=0;exitX=0.5;exitY=0;exitDx=0;exitDy=0;entryX=0.5;entryY=1;entryDx=0;entryDy=0;" edge="1" parent="1" source="sulzpsI2D9N6oiVS1tv0-12" target="sulzpsI2D9N6oiVS1tv0-11">
          <mxGeometry width="160" relative="1" as="geometry">
            <mxPoint x="380" y="570" as="sourcePoint" />
            <mxPoint x="540" y="570" as="targetPoint" />
          </mxGeometry>
        </mxCell>
        <mxCell id="sulzpsI2D9N6oiVS1tv0-19" value="" style="endArrow=diamondThin;endFill=0;endSize=24;html=1;rounded=0;exitX=0.5;exitY=0;exitDx=0;exitDy=0;entryX=0.5;entryY=1;entryDx=0;entryDy=0;" edge="1" parent="1" source="sulzpsI2D9N6oiVS1tv0-13" target="sulzpsI2D9N6oiVS1tv0-12">
          <mxGeometry width="160" relative="1" as="geometry">
            <mxPoint x="380" y="570" as="sourcePoint" />
            <mxPoint x="540" y="570" as="targetPoint" />
          </mxGeometry>
        </mxCell>
        <mxCell id="sulzpsI2D9N6oiVS1tv0-21" value="乗り物&lt;div&gt;&lt;br&gt;&lt;/div&gt;" style="rounded=0;whiteSpace=wrap;html=1;" vertex="1" parent="1">
          <mxGeometry x="720" y="-1000" width="120" height="60" as="geometry" />
        </mxCell>
        <mxCell id="sulzpsI2D9N6oiVS1tv0-22" value="車" style="rounded=0;whiteSpace=wrap;html=1;" vertex="1" parent="1">
          <mxGeometry x="600" y="-840" width="120" height="60" as="geometry" />
        </mxCell>
        <mxCell id="sulzpsI2D9N6oiVS1tv0-23" value="船" style="rounded=0;whiteSpace=wrap;html=1;" vertex="1" parent="1">
          <mxGeometry x="770" y="-840" width="120" height="60" as="geometry" />
        </mxCell>
        <mxCell id="sulzpsI2D9N6oiVS1tv0-24" value="飛行機" style="rounded=0;whiteSpace=wrap;html=1;" vertex="1" parent="1">
          <mxGeometry x="940" y="-840" width="120" height="60" as="geometry" />
        </mxCell>
        <mxCell id="sulzpsI2D9N6oiVS1tv0-25" value="" style="endArrow=diamondThin;endFill=0;endSize=24;html=1;rounded=0;exitX=0.5;exitY=0;exitDx=0;exitDy=0;entryX=0.322;entryY=0.996;entryDx=0;entryDy=0;entryPerimeter=0;" edge="1" parent="1" source="sulzpsI2D9N6oiVS1tv0-22" target="sulzpsI2D9N6oiVS1tv0-21">
          <mxGeometry width="160" relative="1" as="geometry">
            <mxPoint x="770" y="-700" as="sourcePoint" />
            <mxPoint x="930" y="-700" as="targetPoint" />
          </mxGeometry>
        </mxCell>
        <mxCell id="sulzpsI2D9N6oiVS1tv0-27" value="" style="endArrow=diamondThin;endFill=0;endSize=24;html=1;rounded=0;exitX=0.5;exitY=0;exitDx=0;exitDy=0;entryX=0.5;entryY=1;entryDx=0;entryDy=0;" edge="1" parent="1" source="sulzpsI2D9N6oiVS1tv0-23" target="sulzpsI2D9N6oiVS1tv0-21">
          <mxGeometry width="160" relative="1" as="geometry">
            <mxPoint x="740" y="-810" as="sourcePoint" />
            <mxPoint x="900" y="-810" as="targetPoint" />
          </mxGeometry>
        </mxCell>
        <mxCell id="sulzpsI2D9N6oiVS1tv0-30" value="" style="endArrow=diamondThin;endFill=0;endSize=24;html=1;rounded=0;exitX=0.5;exitY=0;exitDx=0;exitDy=0;entryX=0.75;entryY=1;entryDx=0;entryDy=0;" edge="1" parent="1" source="sulzpsI2D9N6oiVS1tv0-24" target="sulzpsI2D9N6oiVS1tv0-21">
          <mxGeometry width="160" relative="1" as="geometry">
            <mxPoint x="740" y="-810" as="sourcePoint" />
            <mxPoint x="900" y="-810" as="targetPoint" />
          </mxGeometry>
        </mxCell>
      </root>
    </mxGraphModel>
  </diagram>
</mxfile>
